%TF.GenerationSoftware,KiCad,Pcbnew,9.0.3*%
%TF.CreationDate,2026-05-24T21:09:01+01:00*%
%TF.ProjectId,tamagotchi,74616d61-676f-4746-9368-692e6b696361,rev?*%
%TF.SameCoordinates,Original*%
%TF.FileFunction,Legend,Top*%
%TF.FilePolarity,Positive*%
%FSLAX46Y46*%
G04 Gerber Fmt 4.6, Leading zero omitted, Abs format (unit mm)*
G04 Created by KiCad (PCBNEW 9.0.3) date 2026-05-24 21:09:01*
%MOMM*%
%LPD*%
G01*
G04 APERTURE LIST*
%ADD10C,0.100000*%
%ADD11C,0.070000*%
%ADD12C,0.040000*%
%ADD13C,0.150000*%
%ADD14C,0.250000*%
%ADD15C,0.060000*%
%ADD16C,0.120000*%
G04 APERTURE END LIST*
D10*
X41278884Y-45142983D02*
X34600000Y-41200000D01*
D11*
X110396808Y-47160089D02*
X115989357Y-44400000D01*
D10*
X43540083Y-39145890D02*
X46735255Y-32383221D01*
D12*
X90505405Y-39688543D02*
X91783474Y-36983475D01*
D11*
X112744679Y-54386094D02*
X110396808Y-47160089D01*
D12*
X93441833Y-42087380D02*
X96637576Y-40510187D01*
D10*
X46735255Y-50016779D02*
X54235255Y-55465848D01*
D12*
X37091000Y-48089813D02*
X39270628Y-45089813D01*
X39270628Y-45089813D02*
X35141482Y-46431454D01*
X100870854Y-39982549D02*
X99293661Y-42654102D01*
D11*
X103675219Y-47160089D02*
X102244679Y-54386094D01*
D12*
X99293661Y-42654102D02*
X98472017Y-39078069D01*
X89600925Y-42087380D02*
X86929372Y-40510187D01*
X89600925Y-42087380D02*
X88783474Y-46216526D01*
X35141482Y-46431454D02*
X33564289Y-43235711D01*
D10*
X46735255Y-32383221D02*
X48932580Y-39145890D01*
D11*
X103675219Y-47160089D02*
X99000000Y-44400000D01*
D12*
X100870854Y-36141641D02*
X99293661Y-32945898D01*
X91783474Y-36983475D02*
X92662403Y-39688543D01*
X32742645Y-49367882D02*
X30037577Y-48089813D01*
X100870854Y-39982549D02*
X105000000Y-40800000D01*
D11*
X109032806Y-42962124D02*
X115989357Y-44400000D01*
X105258058Y-42962124D02*
X107494679Y-38228255D01*
D12*
X33564289Y-52943915D02*
X32742645Y-49367882D01*
X98472017Y-39078069D02*
X95766949Y-37800000D01*
X30037577Y-48089813D02*
X32742645Y-47210884D01*
D11*
X107494679Y-38228255D02*
X109032806Y-42962124D01*
D10*
X41278884Y-45142983D02*
X39235255Y-55465848D01*
X48932580Y-39145890D02*
X58870510Y-41200000D01*
D12*
X98472017Y-36921071D02*
X99293661Y-32945898D01*
X86929372Y-40510187D02*
X90505405Y-39688543D01*
X102820372Y-37800000D02*
X105000000Y-34800000D01*
X32742645Y-47210884D02*
X33564289Y-43235711D01*
D10*
X34600000Y-41200000D02*
X43540083Y-39145890D01*
D11*
X102244679Y-54386094D02*
X107494679Y-50571745D01*
D12*
X35141482Y-50272362D02*
X33564289Y-52943915D01*
D11*
X99000000Y-44400000D02*
X105258058Y-42962124D01*
D12*
X94783474Y-46216526D02*
X93441833Y-42087380D01*
X105000000Y-34800000D02*
X100870854Y-36141641D01*
X92662403Y-39688543D02*
X96637576Y-40510187D01*
X88783474Y-46216526D02*
X91783474Y-44036898D01*
D10*
X39235255Y-55465848D02*
X46735255Y-50016779D01*
D12*
X91783474Y-44036898D02*
X94783474Y-46216526D01*
D11*
X107494679Y-50571745D02*
X112744679Y-54386094D01*
D10*
X50881153Y-45142983D02*
X58870510Y-41200000D01*
D12*
X105000000Y-40800000D02*
X102820372Y-37800000D01*
X35141482Y-50272362D02*
X39270628Y-51089813D01*
X39270628Y-51089813D02*
X37091000Y-48089813D01*
D10*
X54235255Y-55465848D02*
X50881153Y-45142983D01*
D12*
X95766949Y-37800000D02*
X98472017Y-36921071D01*
D10*
X68503884Y-51072419D02*
X68503884Y-50072419D01*
X68503884Y-50453371D02*
X68599122Y-50405752D01*
X68599122Y-50405752D02*
X68789598Y-50405752D01*
X68789598Y-50405752D02*
X68884836Y-50453371D01*
X68884836Y-50453371D02*
X68932455Y-50500990D01*
X68932455Y-50500990D02*
X68980074Y-50596228D01*
X68980074Y-50596228D02*
X68980074Y-50881942D01*
X68980074Y-50881942D02*
X68932455Y-50977180D01*
X68932455Y-50977180D02*
X68884836Y-51024800D01*
X68884836Y-51024800D02*
X68789598Y-51072419D01*
X68789598Y-51072419D02*
X68599122Y-51072419D01*
X68599122Y-51072419D02*
X68503884Y-51024800D01*
X69313408Y-50405752D02*
X69551503Y-51072419D01*
X69789598Y-50405752D02*
X69551503Y-51072419D01*
X69551503Y-51072419D02*
X69456265Y-51310514D01*
X69456265Y-51310514D02*
X69408646Y-51358133D01*
X69408646Y-51358133D02*
X69313408Y-51405752D01*
X71313408Y-51024800D02*
X71218170Y-51072419D01*
X71218170Y-51072419D02*
X71027694Y-51072419D01*
X71027694Y-51072419D02*
X70932456Y-51024800D01*
X70932456Y-51024800D02*
X70884837Y-50929561D01*
X70884837Y-50929561D02*
X70884837Y-50548609D01*
X70884837Y-50548609D02*
X70932456Y-50453371D01*
X70932456Y-50453371D02*
X71027694Y-50405752D01*
X71027694Y-50405752D02*
X71218170Y-50405752D01*
X71218170Y-50405752D02*
X71313408Y-50453371D01*
X71313408Y-50453371D02*
X71361027Y-50548609D01*
X71361027Y-50548609D02*
X71361027Y-50643847D01*
X71361027Y-50643847D02*
X70884837Y-50739085D01*
X71741980Y-51024800D02*
X71837218Y-51072419D01*
X71837218Y-51072419D02*
X72027694Y-51072419D01*
X72027694Y-51072419D02*
X72122932Y-51024800D01*
X72122932Y-51024800D02*
X72170551Y-50929561D01*
X72170551Y-50929561D02*
X72170551Y-50881942D01*
X72170551Y-50881942D02*
X72122932Y-50786704D01*
X72122932Y-50786704D02*
X72027694Y-50739085D01*
X72027694Y-50739085D02*
X71884837Y-50739085D01*
X71884837Y-50739085D02*
X71789599Y-50691466D01*
X71789599Y-50691466D02*
X71741980Y-50596228D01*
X71741980Y-50596228D02*
X71741980Y-50548609D01*
X71741980Y-50548609D02*
X71789599Y-50453371D01*
X71789599Y-50453371D02*
X71884837Y-50405752D01*
X71884837Y-50405752D02*
X72027694Y-50405752D01*
X72027694Y-50405752D02*
X72122932Y-50453371D01*
X72456266Y-50405752D02*
X72837218Y-50405752D01*
X72599123Y-50072419D02*
X72599123Y-50929561D01*
X72599123Y-50929561D02*
X72646742Y-51024800D01*
X72646742Y-51024800D02*
X72741980Y-51072419D01*
X72741980Y-51072419D02*
X72837218Y-51072419D01*
X73170552Y-51072419D02*
X73170552Y-50072419D01*
X73599123Y-51072419D02*
X73599123Y-50548609D01*
X73599123Y-50548609D02*
X73551504Y-50453371D01*
X73551504Y-50453371D02*
X73456266Y-50405752D01*
X73456266Y-50405752D02*
X73313409Y-50405752D01*
X73313409Y-50405752D02*
X73218171Y-50453371D01*
X73218171Y-50453371D02*
X73170552Y-50500990D01*
X74456266Y-51024800D02*
X74361028Y-51072419D01*
X74361028Y-51072419D02*
X74170552Y-51072419D01*
X74170552Y-51072419D02*
X74075314Y-51024800D01*
X74075314Y-51024800D02*
X74027695Y-50929561D01*
X74027695Y-50929561D02*
X74027695Y-50548609D01*
X74027695Y-50548609D02*
X74075314Y-50453371D01*
X74075314Y-50453371D02*
X74170552Y-50405752D01*
X74170552Y-50405752D02*
X74361028Y-50405752D01*
X74361028Y-50405752D02*
X74456266Y-50453371D01*
X74456266Y-50453371D02*
X74503885Y-50548609D01*
X74503885Y-50548609D02*
X74503885Y-50643847D01*
X74503885Y-50643847D02*
X74027695Y-50739085D01*
X74932457Y-51072419D02*
X74932457Y-50405752D01*
X74932457Y-50596228D02*
X74980076Y-50500990D01*
X74980076Y-50500990D02*
X75027695Y-50453371D01*
X75027695Y-50453371D02*
X75122933Y-50405752D01*
X75122933Y-50405752D02*
X75218171Y-50405752D01*
X75551505Y-51072419D02*
X75551505Y-50405752D01*
X75551505Y-50596228D02*
X75599124Y-50500990D01*
X75599124Y-50500990D02*
X75646743Y-50453371D01*
X75646743Y-50453371D02*
X75741981Y-50405752D01*
X75741981Y-50405752D02*
X75837219Y-50405752D01*
X76170553Y-51072419D02*
X76170553Y-50405752D01*
X76170553Y-50596228D02*
X76218172Y-50500990D01*
X76218172Y-50500990D02*
X76265791Y-50453371D01*
X76265791Y-50453371D02*
X76361029Y-50405752D01*
X76361029Y-50405752D02*
X76456267Y-50405752D01*
X78313411Y-50405752D02*
X77551506Y-50691466D01*
X77551506Y-50691466D02*
X78313411Y-50977180D01*
X78694363Y-50072419D02*
X79313410Y-50072419D01*
X79313410Y-50072419D02*
X78980077Y-50453371D01*
X78980077Y-50453371D02*
X79122934Y-50453371D01*
X79122934Y-50453371D02*
X79218172Y-50500990D01*
X79218172Y-50500990D02*
X79265791Y-50548609D01*
X79265791Y-50548609D02*
X79313410Y-50643847D01*
X79313410Y-50643847D02*
X79313410Y-50881942D01*
X79313410Y-50881942D02*
X79265791Y-50977180D01*
X79265791Y-50977180D02*
X79218172Y-51024800D01*
X79218172Y-51024800D02*
X79122934Y-51072419D01*
X79122934Y-51072419D02*
X78837220Y-51072419D01*
X78837220Y-51072419D02*
X78741982Y-51024800D01*
X78741982Y-51024800D02*
X78694363Y-50977180D01*
D13*
X58666667Y-84307200D02*
X58809524Y-84354819D01*
X58809524Y-84354819D02*
X59047619Y-84354819D01*
X59047619Y-84354819D02*
X59142857Y-84307200D01*
X59142857Y-84307200D02*
X59190476Y-84259580D01*
X59190476Y-84259580D02*
X59238095Y-84164342D01*
X59238095Y-84164342D02*
X59238095Y-84069104D01*
X59238095Y-84069104D02*
X59190476Y-83973866D01*
X59190476Y-83973866D02*
X59142857Y-83926247D01*
X59142857Y-83926247D02*
X59047619Y-83878628D01*
X59047619Y-83878628D02*
X58857143Y-83831009D01*
X58857143Y-83831009D02*
X58761905Y-83783390D01*
X58761905Y-83783390D02*
X58714286Y-83735771D01*
X58714286Y-83735771D02*
X58666667Y-83640533D01*
X58666667Y-83640533D02*
X58666667Y-83545295D01*
X58666667Y-83545295D02*
X58714286Y-83450057D01*
X58714286Y-83450057D02*
X58761905Y-83402438D01*
X58761905Y-83402438D02*
X58857143Y-83354819D01*
X58857143Y-83354819D02*
X59095238Y-83354819D01*
X59095238Y-83354819D02*
X59238095Y-83402438D01*
X59571429Y-83354819D02*
X59809524Y-84354819D01*
X59809524Y-84354819D02*
X60000000Y-83640533D01*
X60000000Y-83640533D02*
X60190476Y-84354819D01*
X60190476Y-84354819D02*
X60428572Y-83354819D01*
X61333333Y-84354819D02*
X60761905Y-84354819D01*
X61047619Y-84354819D02*
X61047619Y-83354819D01*
X61047619Y-83354819D02*
X60952381Y-83497676D01*
X60952381Y-83497676D02*
X60857143Y-83592914D01*
X60857143Y-83592914D02*
X60761905Y-83640533D01*
X71866667Y-91607200D02*
X72009524Y-91654819D01*
X72009524Y-91654819D02*
X72247619Y-91654819D01*
X72247619Y-91654819D02*
X72342857Y-91607200D01*
X72342857Y-91607200D02*
X72390476Y-91559580D01*
X72390476Y-91559580D02*
X72438095Y-91464342D01*
X72438095Y-91464342D02*
X72438095Y-91369104D01*
X72438095Y-91369104D02*
X72390476Y-91273866D01*
X72390476Y-91273866D02*
X72342857Y-91226247D01*
X72342857Y-91226247D02*
X72247619Y-91178628D01*
X72247619Y-91178628D02*
X72057143Y-91131009D01*
X72057143Y-91131009D02*
X71961905Y-91083390D01*
X71961905Y-91083390D02*
X71914286Y-91035771D01*
X71914286Y-91035771D02*
X71866667Y-90940533D01*
X71866667Y-90940533D02*
X71866667Y-90845295D01*
X71866667Y-90845295D02*
X71914286Y-90750057D01*
X71914286Y-90750057D02*
X71961905Y-90702438D01*
X71961905Y-90702438D02*
X72057143Y-90654819D01*
X72057143Y-90654819D02*
X72295238Y-90654819D01*
X72295238Y-90654819D02*
X72438095Y-90702438D01*
X72771429Y-90654819D02*
X73009524Y-91654819D01*
X73009524Y-91654819D02*
X73200000Y-90940533D01*
X73200000Y-90940533D02*
X73390476Y-91654819D01*
X73390476Y-91654819D02*
X73628572Y-90654819D01*
X73961905Y-90750057D02*
X74009524Y-90702438D01*
X74009524Y-90702438D02*
X74104762Y-90654819D01*
X74104762Y-90654819D02*
X74342857Y-90654819D01*
X74342857Y-90654819D02*
X74438095Y-90702438D01*
X74438095Y-90702438D02*
X74485714Y-90750057D01*
X74485714Y-90750057D02*
X74533333Y-90845295D01*
X74533333Y-90845295D02*
X74533333Y-90940533D01*
X74533333Y-90940533D02*
X74485714Y-91083390D01*
X74485714Y-91083390D02*
X73914286Y-91654819D01*
X73914286Y-91654819D02*
X74533333Y-91654819D01*
X85266667Y-84607200D02*
X85409524Y-84654819D01*
X85409524Y-84654819D02*
X85647619Y-84654819D01*
X85647619Y-84654819D02*
X85742857Y-84607200D01*
X85742857Y-84607200D02*
X85790476Y-84559580D01*
X85790476Y-84559580D02*
X85838095Y-84464342D01*
X85838095Y-84464342D02*
X85838095Y-84369104D01*
X85838095Y-84369104D02*
X85790476Y-84273866D01*
X85790476Y-84273866D02*
X85742857Y-84226247D01*
X85742857Y-84226247D02*
X85647619Y-84178628D01*
X85647619Y-84178628D02*
X85457143Y-84131009D01*
X85457143Y-84131009D02*
X85361905Y-84083390D01*
X85361905Y-84083390D02*
X85314286Y-84035771D01*
X85314286Y-84035771D02*
X85266667Y-83940533D01*
X85266667Y-83940533D02*
X85266667Y-83845295D01*
X85266667Y-83845295D02*
X85314286Y-83750057D01*
X85314286Y-83750057D02*
X85361905Y-83702438D01*
X85361905Y-83702438D02*
X85457143Y-83654819D01*
X85457143Y-83654819D02*
X85695238Y-83654819D01*
X85695238Y-83654819D02*
X85838095Y-83702438D01*
X86171429Y-83654819D02*
X86409524Y-84654819D01*
X86409524Y-84654819D02*
X86600000Y-83940533D01*
X86600000Y-83940533D02*
X86790476Y-84654819D01*
X86790476Y-84654819D02*
X87028572Y-83654819D01*
X87314286Y-83654819D02*
X87933333Y-83654819D01*
X87933333Y-83654819D02*
X87600000Y-84035771D01*
X87600000Y-84035771D02*
X87742857Y-84035771D01*
X87742857Y-84035771D02*
X87838095Y-84083390D01*
X87838095Y-84083390D02*
X87885714Y-84131009D01*
X87885714Y-84131009D02*
X87933333Y-84226247D01*
X87933333Y-84226247D02*
X87933333Y-84464342D01*
X87933333Y-84464342D02*
X87885714Y-84559580D01*
X87885714Y-84559580D02*
X87838095Y-84607200D01*
X87838095Y-84607200D02*
X87742857Y-84654819D01*
X87742857Y-84654819D02*
X87457143Y-84654819D01*
X87457143Y-84654819D02*
X87361905Y-84607200D01*
X87361905Y-84607200D02*
X87314286Y-84559580D01*
X71505755Y-54854819D02*
X71505755Y-55664342D01*
X71505755Y-55664342D02*
X71553374Y-55759580D01*
X71553374Y-55759580D02*
X71600993Y-55807200D01*
X71600993Y-55807200D02*
X71696231Y-55854819D01*
X71696231Y-55854819D02*
X71886707Y-55854819D01*
X71886707Y-55854819D02*
X71981945Y-55807200D01*
X71981945Y-55807200D02*
X72029564Y-55759580D01*
X72029564Y-55759580D02*
X72077183Y-55664342D01*
X72077183Y-55664342D02*
X72077183Y-54854819D01*
X72505755Y-54950057D02*
X72553374Y-54902438D01*
X72553374Y-54902438D02*
X72648612Y-54854819D01*
X72648612Y-54854819D02*
X72886707Y-54854819D01*
X72886707Y-54854819D02*
X72981945Y-54902438D01*
X72981945Y-54902438D02*
X73029564Y-54950057D01*
X73029564Y-54950057D02*
X73077183Y-55045295D01*
X73077183Y-55045295D02*
X73077183Y-55140533D01*
X73077183Y-55140533D02*
X73029564Y-55283390D01*
X73029564Y-55283390D02*
X72458136Y-55854819D01*
X72458136Y-55854819D02*
X73077183Y-55854819D01*
X49495238Y-61104819D02*
X49495238Y-60438152D01*
X49495238Y-60533390D02*
X49542857Y-60485771D01*
X49542857Y-60485771D02*
X49638095Y-60438152D01*
X49638095Y-60438152D02*
X49780952Y-60438152D01*
X49780952Y-60438152D02*
X49876190Y-60485771D01*
X49876190Y-60485771D02*
X49923809Y-60581009D01*
X49923809Y-60581009D02*
X49923809Y-61104819D01*
X49923809Y-60581009D02*
X49971428Y-60485771D01*
X49971428Y-60485771D02*
X50066666Y-60438152D01*
X50066666Y-60438152D02*
X50209523Y-60438152D01*
X50209523Y-60438152D02*
X50304762Y-60485771D01*
X50304762Y-60485771D02*
X50352381Y-60581009D01*
X50352381Y-60581009D02*
X50352381Y-61104819D01*
X50733333Y-60104819D02*
X51352380Y-60104819D01*
X51352380Y-60104819D02*
X51019047Y-60485771D01*
X51019047Y-60485771D02*
X51161904Y-60485771D01*
X51161904Y-60485771D02*
X51257142Y-60533390D01*
X51257142Y-60533390D02*
X51304761Y-60581009D01*
X51304761Y-60581009D02*
X51352380Y-60676247D01*
X51352380Y-60676247D02*
X51352380Y-60914342D01*
X51352380Y-60914342D02*
X51304761Y-61009580D01*
X51304761Y-61009580D02*
X51257142Y-61057200D01*
X51257142Y-61057200D02*
X51161904Y-61104819D01*
X51161904Y-61104819D02*
X50876190Y-61104819D01*
X50876190Y-61104819D02*
X50780952Y-61057200D01*
X50780952Y-61057200D02*
X50733333Y-61009580D01*
X72414285Y-112786009D02*
X72557142Y-112833628D01*
X72557142Y-112833628D02*
X72604761Y-112881247D01*
X72604761Y-112881247D02*
X72652380Y-112976485D01*
X72652380Y-112976485D02*
X72652380Y-113119342D01*
X72652380Y-113119342D02*
X72604761Y-113214580D01*
X72604761Y-113214580D02*
X72557142Y-113262200D01*
X72557142Y-113262200D02*
X72461904Y-113309819D01*
X72461904Y-113309819D02*
X72080952Y-113309819D01*
X72080952Y-113309819D02*
X72080952Y-112309819D01*
X72080952Y-112309819D02*
X72414285Y-112309819D01*
X72414285Y-112309819D02*
X72509523Y-112357438D01*
X72509523Y-112357438D02*
X72557142Y-112405057D01*
X72557142Y-112405057D02*
X72604761Y-112500295D01*
X72604761Y-112500295D02*
X72604761Y-112595533D01*
X72604761Y-112595533D02*
X72557142Y-112690771D01*
X72557142Y-112690771D02*
X72509523Y-112738390D01*
X72509523Y-112738390D02*
X72414285Y-112786009D01*
X72414285Y-112786009D02*
X72080952Y-112786009D01*
X72938095Y-112309819D02*
X73509523Y-112309819D01*
X73223809Y-113309819D02*
X73223809Y-112309819D01*
X74366666Y-113309819D02*
X73795238Y-113309819D01*
X74080952Y-113309819D02*
X74080952Y-112309819D01*
X74080952Y-112309819D02*
X73985714Y-112452676D01*
X73985714Y-112452676D02*
X73890476Y-112547914D01*
X73890476Y-112547914D02*
X73795238Y-112595533D01*
X91895238Y-61104819D02*
X91895238Y-60438152D01*
X91895238Y-60533390D02*
X91942857Y-60485771D01*
X91942857Y-60485771D02*
X92038095Y-60438152D01*
X92038095Y-60438152D02*
X92180952Y-60438152D01*
X92180952Y-60438152D02*
X92276190Y-60485771D01*
X92276190Y-60485771D02*
X92323809Y-60581009D01*
X92323809Y-60581009D02*
X92323809Y-61104819D01*
X92323809Y-60581009D02*
X92371428Y-60485771D01*
X92371428Y-60485771D02*
X92466666Y-60438152D01*
X92466666Y-60438152D02*
X92609523Y-60438152D01*
X92609523Y-60438152D02*
X92704762Y-60485771D01*
X92704762Y-60485771D02*
X92752381Y-60581009D01*
X92752381Y-60581009D02*
X92752381Y-61104819D01*
X93133333Y-60104819D02*
X93752380Y-60104819D01*
X93752380Y-60104819D02*
X93419047Y-60485771D01*
X93419047Y-60485771D02*
X93561904Y-60485771D01*
X93561904Y-60485771D02*
X93657142Y-60533390D01*
X93657142Y-60533390D02*
X93704761Y-60581009D01*
X93704761Y-60581009D02*
X93752380Y-60676247D01*
X93752380Y-60676247D02*
X93752380Y-60914342D01*
X93752380Y-60914342D02*
X93704761Y-61009580D01*
X93704761Y-61009580D02*
X93657142Y-61057200D01*
X93657142Y-61057200D02*
X93561904Y-61104819D01*
X93561904Y-61104819D02*
X93276190Y-61104819D01*
X93276190Y-61104819D02*
X93180952Y-61057200D01*
X93180952Y-61057200D02*
X93133333Y-61009580D01*
D14*
%TO.C,SW1*%
X61380000Y-90900000D02*
G75*
G02*
X60820000Y-90900000I-280000J0D01*
G01*
X60820000Y-90900000D02*
G75*
G02*
X61380000Y-90900000I280000J0D01*
G01*
X61380000Y-87900000D02*
G75*
G02*
X60820000Y-87900000I-280000J0D01*
G01*
X60820000Y-87900000D02*
G75*
G02*
X61380000Y-87900000I280000J0D01*
G01*
X60920000Y-89400000D02*
G75*
G02*
X59080000Y-89400000I-920000J0D01*
G01*
X59080000Y-89400000D02*
G75*
G02*
X60920000Y-89400000I920000J0D01*
G01*
X59180000Y-90900000D02*
G75*
G02*
X58620000Y-90900000I-280000J0D01*
G01*
X58620000Y-90900000D02*
G75*
G02*
X59180000Y-90900000I280000J0D01*
G01*
X59180000Y-87900000D02*
G75*
G02*
X58620000Y-87900000I-280000J0D01*
G01*
X58620000Y-87900000D02*
G75*
G02*
X59180000Y-87900000I280000J0D01*
G01*
D15*
X57430000Y-87150000D02*
G75*
G02*
X57370000Y-87150000I-30000J0D01*
G01*
X57370000Y-87150000D02*
G75*
G02*
X57430000Y-87150000I30000J0D01*
G01*
D14*
X62400000Y-88900000D02*
X62400000Y-89900000D01*
X61750000Y-91650000D02*
X58240000Y-91650000D01*
X58250000Y-87150000D02*
X61750000Y-87150000D01*
X57750000Y-89900000D02*
X57750000Y-88900000D01*
%TO.C,SW2*%
X74580000Y-98100000D02*
G75*
G02*
X74020000Y-98100000I-280000J0D01*
G01*
X74020000Y-98100000D02*
G75*
G02*
X74580000Y-98100000I280000J0D01*
G01*
X74580000Y-95100000D02*
G75*
G02*
X74020000Y-95100000I-280000J0D01*
G01*
X74020000Y-95100000D02*
G75*
G02*
X74580000Y-95100000I280000J0D01*
G01*
X74120000Y-96600000D02*
G75*
G02*
X72280000Y-96600000I-920000J0D01*
G01*
X72280000Y-96600000D02*
G75*
G02*
X74120000Y-96600000I920000J0D01*
G01*
X72380000Y-98100000D02*
G75*
G02*
X71820000Y-98100000I-280000J0D01*
G01*
X71820000Y-98100000D02*
G75*
G02*
X72380000Y-98100000I280000J0D01*
G01*
X72380000Y-95100000D02*
G75*
G02*
X71820000Y-95100000I-280000J0D01*
G01*
X71820000Y-95100000D02*
G75*
G02*
X72380000Y-95100000I280000J0D01*
G01*
D15*
X70630000Y-94350000D02*
G75*
G02*
X70570000Y-94350000I-30000J0D01*
G01*
X70570000Y-94350000D02*
G75*
G02*
X70630000Y-94350000I30000J0D01*
G01*
D14*
X75600000Y-96100000D02*
X75600000Y-97100000D01*
X74950000Y-98850000D02*
X71440000Y-98850000D01*
X71450000Y-94350000D02*
X74950000Y-94350000D01*
X70950000Y-97100000D02*
X70950000Y-96100000D01*
%TO.C,SW3*%
X87980000Y-91200000D02*
G75*
G02*
X87420000Y-91200000I-280000J0D01*
G01*
X87420000Y-91200000D02*
G75*
G02*
X87980000Y-91200000I280000J0D01*
G01*
X87980000Y-88200000D02*
G75*
G02*
X87420000Y-88200000I-280000J0D01*
G01*
X87420000Y-88200000D02*
G75*
G02*
X87980000Y-88200000I280000J0D01*
G01*
X87520000Y-89700000D02*
G75*
G02*
X85680000Y-89700000I-920000J0D01*
G01*
X85680000Y-89700000D02*
G75*
G02*
X87520000Y-89700000I920000J0D01*
G01*
X85780000Y-91200000D02*
G75*
G02*
X85220000Y-91200000I-280000J0D01*
G01*
X85220000Y-91200000D02*
G75*
G02*
X85780000Y-91200000I280000J0D01*
G01*
X85780000Y-88200000D02*
G75*
G02*
X85220000Y-88200000I-280000J0D01*
G01*
X85220000Y-88200000D02*
G75*
G02*
X85780000Y-88200000I280000J0D01*
G01*
D15*
X84030000Y-87450000D02*
G75*
G02*
X83970000Y-87450000I-30000J0D01*
G01*
X83970000Y-87450000D02*
G75*
G02*
X84030000Y-87450000I30000J0D01*
G01*
D14*
X89000000Y-89200000D02*
X89000000Y-90200000D01*
X88350000Y-91950000D02*
X84840000Y-91950000D01*
X84850000Y-87450000D02*
X88350000Y-87450000D01*
X84350000Y-90200000D02*
X84350000Y-89200000D01*
D15*
%TO.C,U2*%
X58820000Y-78800000D02*
G75*
G02*
X58760000Y-78800000I-30000J0D01*
G01*
X58760000Y-78800000D02*
G75*
G02*
X58820000Y-78800000I30000J0D01*
G01*
D14*
X85990000Y-79560000D02*
X78890000Y-79560000D01*
X85990000Y-51760000D02*
X85990000Y-79560000D01*
X78890000Y-79560000D02*
X78890000Y-75810000D01*
X78890000Y-75810000D02*
X66040000Y-75810000D01*
X66040000Y-79560000D02*
X58790000Y-79560000D01*
X66040000Y-75810000D02*
X66040000Y-79560000D01*
X58790000Y-79560000D02*
X58790000Y-51760000D01*
X58790000Y-51760000D02*
X85990000Y-51760000D01*
D16*
%TO.C,BT1*%
X71820000Y-109205000D02*
X71820000Y-106555000D01*
X74580000Y-106555000D02*
X71820000Y-106555000D01*
X74580000Y-109205000D02*
X71820000Y-109205000D01*
X74580000Y-109205000D02*
X74580000Y-106555000D01*
X74580000Y-110475000D02*
X74580000Y-111855000D01*
X74580000Y-111855000D02*
X73200000Y-111855000D01*
%TD*%
M02*
