%TF.GenerationSoftware,KiCad,Pcbnew,9.0.3*%
%TF.CreationDate,2026-05-24T21:09:01+01:00*%
%TF.ProjectId,tamagotchi,74616d61-676f-4746-9368-692e6b696361,rev?*%
%TF.SameCoordinates,Original*%
%TF.FileFunction,Copper,L2,Bot*%
%TF.FilePolarity,Positive*%
%FSLAX46Y46*%
G04 Gerber Fmt 4.6, Leading zero omitted, Abs format (unit mm)*
G04 Created by KiCad (PCBNEW 9.0.3) date 2026-05-24 21:09:01*
%MOMM*%
%LPD*%
G01*
G04 APERTURE LIST*
G04 Aperture macros list*
%AMRoundRect*
0 Rectangle with rounded corners*
0 $1 Rounding radius*
0 $2 $3 $4 $5 $6 $7 $8 $9 X,Y pos of 4 corners*
0 Add a 4 corners polygon primitive as box body*
4,1,4,$2,$3,$4,$5,$6,$7,$8,$9,$2,$3,0*
0 Add four circle primitives for the rounded corners*
1,1,$1+$1,$2,$3*
1,1,$1+$1,$4,$5*
1,1,$1+$1,$6,$7*
1,1,$1+$1,$8,$9*
0 Add four rect primitives between the rounded corners*
20,1,$1+$1,$2,$3,$4,$5,0*
20,1,$1+$1,$4,$5,$6,$7,0*
20,1,$1+$1,$6,$7,$8,$9,0*
20,1,$1+$1,$8,$9,$2,$3,0*%
G04 Aperture macros list end*
%TA.AperFunction,ComponentPad*%
%ADD10C,1.600000*%
%TD*%
%TA.AperFunction,ComponentPad*%
%ADD11C,1.800000*%
%TD*%
%TA.AperFunction,ComponentPad*%
%ADD12C,3.500000*%
%TD*%
%TA.AperFunction,ComponentPad*%
%ADD13C,2.200000*%
%TD*%
%TA.AperFunction,ComponentPad*%
%ADD14R,1.700000X1.700000*%
%TD*%
%TA.AperFunction,ComponentPad*%
%ADD15C,1.700000*%
%TD*%
%TA.AperFunction,SMDPad,CuDef*%
%ADD16RoundRect,0.152400X-1.063600X-0.609600X1.063600X-0.609600X1.063600X0.609600X-1.063600X0.609600X0*%
%TD*%
%TA.AperFunction,ComponentPad*%
%ADD17C,1.524000*%
%TD*%
%TA.AperFunction,SMDPad,CuDef*%
%ADD18RoundRect,0.152400X1.063600X0.609600X-1.063600X0.609600X-1.063600X-0.609600X1.063600X-0.609600X0*%
%TD*%
%TA.AperFunction,ComponentPad*%
%ADD19RoundRect,0.275000X-0.975000X-0.275000X0.975000X-0.275000X0.975000X0.275000X-0.975000X0.275000X0*%
%TD*%
%TA.AperFunction,SMDPad,CuDef*%
%ADD20C,1.700000*%
%TD*%
%TA.AperFunction,ViaPad*%
%ADD21C,0.600000*%
%TD*%
%TA.AperFunction,Conductor*%
%ADD22C,0.200000*%
%TD*%
G04 APERTURE END LIST*
D10*
%TO.P,SW1,2,2*%
%TO.N,Net-(U1-GPIO2_A0_D0)*%
X62400000Y-90900000D03*
X57600000Y-90900000D03*
%TO.P,SW1,1,1*%
%TO.N,GND*%
X62400000Y-87900000D03*
X57600000Y-87900000D03*
%TD*%
%TO.P,SW2,2,2*%
%TO.N,Net-(U1-GPIO3_A1_D1)*%
X75600000Y-98100000D03*
X70800000Y-98100000D03*
%TO.P,SW2,1,1*%
%TO.N,GND*%
X75600000Y-95100000D03*
X70800000Y-95100000D03*
%TD*%
%TO.P,SW3,2,2*%
%TO.N,Net-(U1-GPIO4_A2_D2)*%
X89000000Y-91200000D03*
X84200000Y-91200000D03*
%TO.P,SW3,1,1*%
%TO.N,GND*%
X89000000Y-88200000D03*
X84200000Y-88200000D03*
%TD*%
D11*
%TO.P,U2,4,SDA*%
%TO.N,Net-(U1-GPIO6_D4_SDA)*%
X76200000Y-53200000D03*
%TO.P,U2,3,SCL*%
%TO.N,Net-(U1-GPIO7_D5_SCL)*%
X73660000Y-53200000D03*
%TO.P,U2,2,VCC*%
%TO.N,+3V3*%
X71120000Y-53200000D03*
%TO.P,U2,1,GND*%
%TO.N,GND*%
X68580000Y-53200000D03*
D12*
%TO.P,U2,*%
%TO.N,*%
X84040000Y-77560000D03*
X84040000Y-53760000D03*
X60740000Y-77560000D03*
X60740000Y-53760000D03*
%TD*%
D13*
%TO.P,BUZZER1,1,+*%
%TO.N,Net-(BUZZER1-+)*%
X75450000Y-64400000D03*
%TO.P,BUZZER1,2,-*%
%TO.N,GND*%
X68950000Y-64400000D03*
%TD*%
D14*
%TO.P,BT1,1,+*%
%TO.N,+BATT*%
X73200000Y-110475000D03*
D15*
%TO.P,BT1,2,-*%
%TO.N,GND*%
X73200000Y-107935000D03*
%TD*%
D16*
%TO.P,U1,1,GPIO2_A0_D0*%
%TO.N,Net-(U1-GPIO2_A0_D0)*%
X81725000Y-86076000D03*
D17*
X80890000Y-86076000D03*
D16*
%TO.P,U1,2,GPIO3_A1_D1*%
%TO.N,Net-(U1-GPIO3_A1_D1)*%
X81725000Y-88616000D03*
D17*
X80890000Y-88616000D03*
D16*
%TO.P,U1,3,GPIO4_A2_D2*%
%TO.N,Net-(U1-GPIO4_A2_D2)*%
X81725000Y-91156000D03*
D17*
X80890000Y-91156000D03*
D16*
%TO.P,U1,4,GPIO5_A3_D3*%
%TO.N,unconnected-(U1-GPIO5_A3_D3-Pad4)*%
X81725000Y-93696000D03*
D17*
X80890000Y-93696000D03*
D16*
%TO.P,U1,5,GPIO6_D4_SDA*%
%TO.N,Net-(U1-GPIO6_D4_SDA)*%
X81725000Y-96236000D03*
D17*
X80890000Y-96236000D03*
D16*
%TO.P,U1,6,GPIO7_D5_SCL*%
%TO.N,Net-(U1-GPIO7_D5_SCL)*%
X81725000Y-98776000D03*
D17*
X80890000Y-98776000D03*
D16*
%TO.P,U1,7,GPIO21_D6_TX*%
%TO.N,unconnected-(U1-GPIO21_D6_TX-Pad7)*%
X81725000Y-101316000D03*
D17*
X80890000Y-101316000D03*
%TO.P,U1,8,GPIO20_D7_RX*%
%TO.N,unconnected-(U1-GPIO20_D7_RX-Pad8)*%
X65650000Y-101316000D03*
D18*
X64815000Y-101316000D03*
D17*
%TO.P,U1,9,GPIO8_D8_SCK*%
%TO.N,unconnected-(U1-GPIO8_D8_SCK-Pad9)*%
X65650000Y-98776000D03*
D18*
X64815000Y-98776000D03*
D17*
%TO.P,U1,10,GPIO9_D9_MISO*%
%TO.N,unconnected-(U1-GPIO9_D9_MISO-Pad10)_1*%
X65650000Y-96236000D03*
D18*
X64815000Y-96236000D03*
D17*
%TO.P,U1,11,GPIO10_D10_MOSI*%
%TO.N,Net-(BUZZER1-+)*%
X65650000Y-93696000D03*
D18*
X64815000Y-93696000D03*
D17*
%TO.P,U1,12,3V3*%
%TO.N,+3V3*%
X65650000Y-91156000D03*
D18*
X64815000Y-91156000D03*
D17*
%TO.P,U1,13,GND*%
%TO.N,GND*%
X65650000Y-88616000D03*
D18*
X64815000Y-88616000D03*
D17*
%TO.P,U1,14,5V*%
%TO.N,+5V*%
X65650000Y-86076000D03*
D18*
X64815000Y-86076000D03*
D19*
%TO.P,U1,15,BAT*%
%TO.N,+BATT*%
X77715000Y-93310000D03*
%TO.P,U1,16,GND*%
%TO.N,unconnected-(U1-GND-Pad16)*%
X77715000Y-91405000D03*
D20*
%TO.P,U1,17,MTDI*%
%TO.N,unconnected-(U1-MTDI-Pad17)*%
X74540000Y-85060000D03*
%TO.P,U1,18,MTDO*%
%TO.N,unconnected-(U1-MTDO-Pad18)*%
X72000000Y-85060000D03*
%TO.P,U1,19,CHIP_EN*%
%TO.N,unconnected-(U1-CHIP_EN-Pad19)*%
X74540000Y-87600000D03*
%TO.P,U1,20,GND*%
%TO.N,unconnected-(U1-GND-Pad20)*%
X72000000Y-87600000D03*
%TO.P,U1,21,MTMS*%
%TO.N,unconnected-(U1-MTMS-Pad21)*%
X74540000Y-90140000D03*
%TO.P,U1,22,MTCK*%
%TO.N,unconnected-(U1-MTCK-Pad22)*%
X72000000Y-90140000D03*
%TD*%
D21*
%TO.N,+BATT*%
X76222509Y-96241266D03*
%TO.N,GND*%
X73751000Y-93800000D03*
X75795449Y-89643660D03*
X68000000Y-88800000D03*
X70693437Y-90479706D03*
X67800000Y-90600000D03*
%TO.N,Net-(BUZZER1-+)*%
X75800000Y-81000000D03*
X66600000Y-93400000D03*
%TO.N,Net-(U1-GPIO2_A0_D0)*%
X73269998Y-89682176D03*
%TD*%
D22*
%TO.N,+BATT*%
X77558734Y-96241266D02*
X78000000Y-95800000D01*
X76222509Y-96241266D02*
X77558734Y-96241266D01*
X78000000Y-95800000D02*
X77715000Y-95515000D01*
X77715000Y-95515000D02*
X77715000Y-93310000D01*
%TO.N,GND*%
X75600000Y-95100000D02*
X74300000Y-93800000D01*
X74300000Y-93800000D02*
X73751000Y-93800000D01*
X65650000Y-88616000D02*
X67634000Y-90600000D01*
X75016760Y-91291000D02*
X71504731Y-91291000D01*
X67816000Y-88616000D02*
X65650000Y-88616000D01*
X79980100Y-87553000D02*
X77889440Y-89643660D01*
X68000000Y-88800000D02*
X67816000Y-88616000D01*
X83753000Y-87553000D02*
X79980100Y-87553000D01*
X75795449Y-89643660D02*
X75795449Y-90512311D01*
X71504731Y-91291000D02*
X70693437Y-90479706D01*
X77889440Y-89643660D02*
X75795449Y-89643660D01*
X84000000Y-87800000D02*
X83753000Y-87553000D01*
X67634000Y-90600000D02*
X67800000Y-90600000D01*
X75795449Y-90512311D02*
X75016760Y-91291000D01*
X70800000Y-95100000D02*
X75600000Y-95100000D01*
%TO.N,Net-(BUZZER1-+)*%
X75800000Y-81000000D02*
X73151000Y-83649000D01*
X71249000Y-88751000D02*
X66600000Y-93400000D01*
X72476760Y-88751000D02*
X71249000Y-88751000D01*
X73151000Y-83649000D02*
X73151000Y-88076760D01*
X73151000Y-88076760D02*
X72476760Y-88751000D01*
%TO.N,Net-(U1-GPIO2_A0_D0)*%
X78215000Y-88751000D02*
X74201174Y-88751000D01*
X80890000Y-86076000D02*
X78215000Y-88751000D01*
X74201174Y-88751000D02*
X73269998Y-89682176D01*
%TO.N,Net-(U1-GPIO3_A1_D1)*%
X75600000Y-98100000D02*
X70800000Y-98100000D01*
X79506000Y-90000000D02*
X79400000Y-90000000D01*
X80890000Y-88616000D02*
X79506000Y-90000000D01*
X79400000Y-97000000D02*
X78300000Y-98100000D01*
X78300000Y-98100000D02*
X75600000Y-98100000D01*
X79400000Y-90000000D02*
X79400000Y-97000000D01*
%TD*%
M02*
