%TF.GenerationSoftware,KiCad,Pcbnew,9.0.3*%
%TF.CreationDate,2026-05-23T21:55:05+01:00*%
%TF.ProjectId,tamagotchi,74616d61-676f-4746-9368-692e6b696361,rev?*%
%TF.SameCoordinates,Original*%
%TF.FileFunction,Soldermask,Bot*%
%TF.FilePolarity,Negative*%
%FSLAX46Y46*%
G04 Gerber Fmt 4.6, Leading zero omitted, Abs format (unit mm)*
G04 Created by KiCad (PCBNEW 9.0.3) date 2026-05-23 21:55:05*
%MOMM*%
%LPD*%
G01*
G04 APERTURE LIST*
G04 Aperture macros list*
%AMRoundRect*
0 Rectangle with rounded corners*
0 $1 Rounding radius*
0 $2 $3 $4 $5 $6 $7 $8 $9 X,Y pos of 4 corners*
0 Add a 4 corners polygon primitive as box body*
4,1,4,$2,$3,$4,$5,$6,$7,$8,$9,$2,$3,0*
0 Add four circle primitives for the rounded corners*
1,1,$1+$1,$2,$3*
1,1,$1+$1,$4,$5*
1,1,$1+$1,$6,$7*
1,1,$1+$1,$8,$9*
0 Add four rect primitives between the rounded corners*
20,1,$1+$1,$2,$3,$4,$5,0*
20,1,$1+$1,$4,$5,$6,$7,0*
20,1,$1+$1,$6,$7,$8,$9,0*
20,1,$1+$1,$8,$9,$2,$3,0*%
G04 Aperture macros list end*
%ADD10C,1.600000*%
%ADD11RoundRect,0.275000X-0.975000X-0.275000X0.975000X-0.275000X0.975000X0.275000X-0.975000X0.275000X0*%
%ADD12C,1.700000*%
%ADD13C,1.524000*%
%ADD14RoundRect,0.152400X1.063600X0.609600X-1.063600X0.609600X-1.063600X-0.609600X1.063600X-0.609600X0*%
%ADD15RoundRect,0.152400X-1.063600X-0.609600X1.063600X-0.609600X1.063600X0.609600X-1.063600X0.609600X0*%
%ADD16C,1.800000*%
%ADD17C,3.500000*%
%ADD18C,2.200000*%
%ADD19C,3.200000*%
%ADD20R,1.700000X1.700000*%
G04 APERTURE END LIST*
D10*
%TO.C,SW1*%
X62400000Y-90900000D03*
X57600000Y-90900000D03*
X62400000Y-87900000D03*
X57600000Y-87900000D03*
%TD*%
%TO.C,SW2*%
X75600000Y-98100000D03*
X70800000Y-98100000D03*
X75600000Y-95100000D03*
X70800000Y-95100000D03*
%TD*%
%TO.C,SW3*%
X89000000Y-91200000D03*
X84200000Y-91200000D03*
X89000000Y-88200000D03*
X84200000Y-88200000D03*
%TD*%
D11*
%TO.C,U1*%
X77715000Y-91405000D03*
X77715000Y-93310000D03*
D12*
X72000000Y-90140000D03*
X74540000Y-90140000D03*
X72000000Y-87600000D03*
X74540000Y-87600000D03*
X72000000Y-85060000D03*
X74540000Y-85060000D03*
D13*
X65650000Y-86076000D03*
D14*
X64815000Y-86076000D03*
D13*
X65650000Y-88616000D03*
D14*
X64815000Y-88616000D03*
D13*
X65650000Y-91156000D03*
D14*
X64815000Y-91156000D03*
D13*
X65650000Y-93696000D03*
D14*
X64815000Y-93696000D03*
D13*
X65650000Y-96236000D03*
D14*
X64815000Y-96236000D03*
D13*
X65650000Y-98776000D03*
D14*
X64815000Y-98776000D03*
D13*
X65650000Y-101316000D03*
D14*
X64815000Y-101316000D03*
D15*
X81725000Y-101316000D03*
D13*
X80890000Y-101316000D03*
D15*
X81725000Y-98776000D03*
D13*
X80890000Y-98776000D03*
D15*
X81725000Y-96236000D03*
D13*
X80890000Y-96236000D03*
D15*
X81725000Y-93696000D03*
D13*
X80890000Y-93696000D03*
D15*
X81725000Y-91156000D03*
D13*
X80890000Y-91156000D03*
D15*
X81725000Y-88616000D03*
D13*
X80890000Y-88616000D03*
D15*
X81725000Y-86076000D03*
D13*
X80890000Y-86076000D03*
%TD*%
D16*
%TO.C,U2*%
X76200000Y-53200000D03*
X73660000Y-53200000D03*
X71120000Y-53200000D03*
X68580000Y-53200000D03*
D17*
X84040000Y-77560000D03*
X84040000Y-53760000D03*
X60740000Y-77560000D03*
X60740000Y-53760000D03*
%TD*%
D18*
%TO.C,BUZZER1*%
X75450000Y-64400000D03*
X68950000Y-64400000D03*
%TD*%
D19*
%TO.C,m3*%
X50400000Y-64800000D03*
%TD*%
D20*
%TO.C,BT1*%
X73200000Y-110475000D03*
D12*
X73200000Y-107935000D03*
%TD*%
D19*
%TO.C,m3*%
X92800000Y-64800000D03*
%TD*%
M02*
