%TF.GenerationSoftware,KiCad,Pcbnew,9.0.3*%
%TF.CreationDate,2026-05-24T21:09:02+01:00*%
%TF.ProjectId,tamagotchi,74616d61-676f-4746-9368-692e6b696361,rev?*%
%TF.SameCoordinates,Original*%
%TF.FileFunction,Legend,Bot*%
%TF.FilePolarity,Positive*%
%FSLAX46Y46*%
G04 Gerber Fmt 4.6, Leading zero omitted, Abs format (unit mm)*
G04 Created by KiCad (PCBNEW 9.0.3) date 2026-05-24 21:09:02*
%MOMM*%
%LPD*%
G01*
G04 APERTURE LIST*
%ADD10C,0.100000*%
%ADD11C,0.150000*%
%ADD12C,0.101600*%
%ADD13C,0.250000*%
%ADD14C,0.060000*%
%ADD15C,0.127000*%
%ADD16C,0.504000*%
G04 APERTURE END LIST*
D10*
X101791353Y-43805752D02*
X101553258Y-44472419D01*
X101315163Y-43805752D02*
X101553258Y-44472419D01*
X101553258Y-44472419D02*
X101648496Y-44710514D01*
X101648496Y-44710514D02*
X101696115Y-44758133D01*
X101696115Y-44758133D02*
X101791353Y-44805752D01*
X100791353Y-44472419D02*
X100886591Y-44424800D01*
X100886591Y-44424800D02*
X100934210Y-44377180D01*
X100934210Y-44377180D02*
X100981829Y-44281942D01*
X100981829Y-44281942D02*
X100981829Y-43996228D01*
X100981829Y-43996228D02*
X100934210Y-43900990D01*
X100934210Y-43900990D02*
X100886591Y-43853371D01*
X100886591Y-43853371D02*
X100791353Y-43805752D01*
X100791353Y-43805752D02*
X100648496Y-43805752D01*
X100648496Y-43805752D02*
X100553258Y-43853371D01*
X100553258Y-43853371D02*
X100505639Y-43900990D01*
X100505639Y-43900990D02*
X100458020Y-43996228D01*
X100458020Y-43996228D02*
X100458020Y-44281942D01*
X100458020Y-44281942D02*
X100505639Y-44377180D01*
X100505639Y-44377180D02*
X100553258Y-44424800D01*
X100553258Y-44424800D02*
X100648496Y-44472419D01*
X100648496Y-44472419D02*
X100791353Y-44472419D01*
X99600877Y-43805752D02*
X99600877Y-44472419D01*
X100029448Y-43805752D02*
X100029448Y-44329561D01*
X100029448Y-44329561D02*
X99981829Y-44424800D01*
X99981829Y-44424800D02*
X99886591Y-44472419D01*
X99886591Y-44472419D02*
X99743734Y-44472419D01*
X99743734Y-44472419D02*
X99648496Y-44424800D01*
X99648496Y-44424800D02*
X99600877Y-44377180D01*
X97934210Y-43805752D02*
X97934210Y-44615276D01*
X97934210Y-44615276D02*
X97981829Y-44710514D01*
X97981829Y-44710514D02*
X98029448Y-44758133D01*
X98029448Y-44758133D02*
X98124686Y-44805752D01*
X98124686Y-44805752D02*
X98267543Y-44805752D01*
X98267543Y-44805752D02*
X98362781Y-44758133D01*
X97934210Y-44424800D02*
X98029448Y-44472419D01*
X98029448Y-44472419D02*
X98219924Y-44472419D01*
X98219924Y-44472419D02*
X98315162Y-44424800D01*
X98315162Y-44424800D02*
X98362781Y-44377180D01*
X98362781Y-44377180D02*
X98410400Y-44281942D01*
X98410400Y-44281942D02*
X98410400Y-43996228D01*
X98410400Y-43996228D02*
X98362781Y-43900990D01*
X98362781Y-43900990D02*
X98315162Y-43853371D01*
X98315162Y-43853371D02*
X98219924Y-43805752D01*
X98219924Y-43805752D02*
X98029448Y-43805752D01*
X98029448Y-43805752D02*
X97934210Y-43853371D01*
X97315162Y-44472419D02*
X97410400Y-44424800D01*
X97410400Y-44424800D02*
X97458019Y-44377180D01*
X97458019Y-44377180D02*
X97505638Y-44281942D01*
X97505638Y-44281942D02*
X97505638Y-43996228D01*
X97505638Y-43996228D02*
X97458019Y-43900990D01*
X97458019Y-43900990D02*
X97410400Y-43853371D01*
X97410400Y-43853371D02*
X97315162Y-43805752D01*
X97315162Y-43805752D02*
X97172305Y-43805752D01*
X97172305Y-43805752D02*
X97077067Y-43853371D01*
X97077067Y-43853371D02*
X97029448Y-43900990D01*
X97029448Y-43900990D02*
X96981829Y-43996228D01*
X96981829Y-43996228D02*
X96981829Y-44281942D01*
X96981829Y-44281942D02*
X97029448Y-44377180D01*
X97029448Y-44377180D02*
X97077067Y-44424800D01*
X97077067Y-44424800D02*
X97172305Y-44472419D01*
X97172305Y-44472419D02*
X97315162Y-44472419D01*
X96696114Y-43805752D02*
X96315162Y-43805752D01*
X96553257Y-43472419D02*
X96553257Y-44329561D01*
X96553257Y-44329561D02*
X96505638Y-44424800D01*
X96505638Y-44424800D02*
X96410400Y-44472419D01*
X96410400Y-44472419D02*
X96315162Y-44472419D01*
X95362780Y-43805752D02*
X94981828Y-43805752D01*
X95219923Y-43472419D02*
X95219923Y-44329561D01*
X95219923Y-44329561D02*
X95172304Y-44424800D01*
X95172304Y-44424800D02*
X95077066Y-44472419D01*
X95077066Y-44472419D02*
X94981828Y-44472419D01*
X94648494Y-44472419D02*
X94648494Y-43472419D01*
X94219923Y-44472419D02*
X94219923Y-43948609D01*
X94219923Y-43948609D02*
X94267542Y-43853371D01*
X94267542Y-43853371D02*
X94362780Y-43805752D01*
X94362780Y-43805752D02*
X94505637Y-43805752D01*
X94505637Y-43805752D02*
X94600875Y-43853371D01*
X94600875Y-43853371D02*
X94648494Y-43900990D01*
X93743732Y-44472419D02*
X93743732Y-43805752D01*
X93743732Y-43472419D02*
X93791351Y-43520038D01*
X93791351Y-43520038D02*
X93743732Y-43567657D01*
X93743732Y-43567657D02*
X93696113Y-43520038D01*
X93696113Y-43520038D02*
X93743732Y-43472419D01*
X93743732Y-43472419D02*
X93743732Y-43567657D01*
X93315161Y-44424800D02*
X93219923Y-44472419D01*
X93219923Y-44472419D02*
X93029447Y-44472419D01*
X93029447Y-44472419D02*
X92934209Y-44424800D01*
X92934209Y-44424800D02*
X92886590Y-44329561D01*
X92886590Y-44329561D02*
X92886590Y-44281942D01*
X92886590Y-44281942D02*
X92934209Y-44186704D01*
X92934209Y-44186704D02*
X93029447Y-44139085D01*
X93029447Y-44139085D02*
X93172304Y-44139085D01*
X93172304Y-44139085D02*
X93267542Y-44091466D01*
X93267542Y-44091466D02*
X93315161Y-43996228D01*
X93315161Y-43996228D02*
X93315161Y-43948609D01*
X93315161Y-43948609D02*
X93267542Y-43853371D01*
X93267542Y-43853371D02*
X93172304Y-43805752D01*
X93172304Y-43805752D02*
X93029447Y-43805752D01*
X93029447Y-43805752D02*
X92934209Y-43853371D01*
X51296115Y-44472419D02*
X51296115Y-43805752D01*
X51296115Y-43472419D02*
X51343734Y-43520038D01*
X51343734Y-43520038D02*
X51296115Y-43567657D01*
X51296115Y-43567657D02*
X51248496Y-43520038D01*
X51248496Y-43520038D02*
X51296115Y-43472419D01*
X51296115Y-43472419D02*
X51296115Y-43567657D01*
X50058020Y-44472419D02*
X50058020Y-43472419D01*
X50058020Y-43853371D02*
X49962782Y-43805752D01*
X49962782Y-43805752D02*
X49772306Y-43805752D01*
X49772306Y-43805752D02*
X49677068Y-43853371D01*
X49677068Y-43853371D02*
X49629449Y-43900990D01*
X49629449Y-43900990D02*
X49581830Y-43996228D01*
X49581830Y-43996228D02*
X49581830Y-44281942D01*
X49581830Y-44281942D02*
X49629449Y-44377180D01*
X49629449Y-44377180D02*
X49677068Y-44424800D01*
X49677068Y-44424800D02*
X49772306Y-44472419D01*
X49772306Y-44472419D02*
X49962782Y-44472419D01*
X49962782Y-44472419D02*
X50058020Y-44424800D01*
X48772306Y-44424800D02*
X48867544Y-44472419D01*
X48867544Y-44472419D02*
X49058020Y-44472419D01*
X49058020Y-44472419D02*
X49153258Y-44424800D01*
X49153258Y-44424800D02*
X49200877Y-44329561D01*
X49200877Y-44329561D02*
X49200877Y-43948609D01*
X49200877Y-43948609D02*
X49153258Y-43853371D01*
X49153258Y-43853371D02*
X49058020Y-43805752D01*
X49058020Y-43805752D02*
X48867544Y-43805752D01*
X48867544Y-43805752D02*
X48772306Y-43853371D01*
X48772306Y-43853371D02*
X48724687Y-43948609D01*
X48724687Y-43948609D02*
X48724687Y-44043847D01*
X48724687Y-44043847D02*
X49200877Y-44139085D01*
X48153258Y-44472419D02*
X48248496Y-44424800D01*
X48248496Y-44424800D02*
X48296115Y-44329561D01*
X48296115Y-44329561D02*
X48296115Y-43472419D01*
X47772305Y-44472419D02*
X47772305Y-43805752D01*
X47772305Y-43472419D02*
X47819924Y-43520038D01*
X47819924Y-43520038D02*
X47772305Y-43567657D01*
X47772305Y-43567657D02*
X47724686Y-43520038D01*
X47724686Y-43520038D02*
X47772305Y-43472419D01*
X47772305Y-43472419D02*
X47772305Y-43567657D01*
X46915163Y-44424800D02*
X47010401Y-44472419D01*
X47010401Y-44472419D02*
X47200877Y-44472419D01*
X47200877Y-44472419D02*
X47296115Y-44424800D01*
X47296115Y-44424800D02*
X47343734Y-44329561D01*
X47343734Y-44329561D02*
X47343734Y-43948609D01*
X47343734Y-43948609D02*
X47296115Y-43853371D01*
X47296115Y-43853371D02*
X47200877Y-43805752D01*
X47200877Y-43805752D02*
X47010401Y-43805752D01*
X47010401Y-43805752D02*
X46915163Y-43853371D01*
X46915163Y-43853371D02*
X46867544Y-43948609D01*
X46867544Y-43948609D02*
X46867544Y-44043847D01*
X46867544Y-44043847D02*
X47343734Y-44139085D01*
X46534210Y-43805752D02*
X46296115Y-44472419D01*
X46296115Y-44472419D02*
X46058020Y-43805752D01*
X45296115Y-44424800D02*
X45391353Y-44472419D01*
X45391353Y-44472419D02*
X45581829Y-44472419D01*
X45581829Y-44472419D02*
X45677067Y-44424800D01*
X45677067Y-44424800D02*
X45724686Y-44329561D01*
X45724686Y-44329561D02*
X45724686Y-43948609D01*
X45724686Y-43948609D02*
X45677067Y-43853371D01*
X45677067Y-43853371D02*
X45581829Y-43805752D01*
X45581829Y-43805752D02*
X45391353Y-43805752D01*
X45391353Y-43805752D02*
X45296115Y-43853371D01*
X45296115Y-43853371D02*
X45248496Y-43948609D01*
X45248496Y-43948609D02*
X45248496Y-44043847D01*
X45248496Y-44043847D02*
X45724686Y-44139085D01*
X44058019Y-44472419D02*
X44058019Y-43805752D01*
X44058019Y-43472419D02*
X44105638Y-43520038D01*
X44105638Y-43520038D02*
X44058019Y-43567657D01*
X44058019Y-43567657D02*
X44010400Y-43520038D01*
X44010400Y-43520038D02*
X44058019Y-43472419D01*
X44058019Y-43472419D02*
X44058019Y-43567657D01*
X43581829Y-43805752D02*
X43581829Y-44472419D01*
X43581829Y-43900990D02*
X43534210Y-43853371D01*
X43534210Y-43853371D02*
X43438972Y-43805752D01*
X43438972Y-43805752D02*
X43296115Y-43805752D01*
X43296115Y-43805752D02*
X43200877Y-43853371D01*
X43200877Y-43853371D02*
X43153258Y-43948609D01*
X43153258Y-43948609D02*
X43153258Y-44472419D01*
X42010400Y-43805752D02*
X41772305Y-44472419D01*
X41534210Y-43805752D02*
X41772305Y-44472419D01*
X41772305Y-44472419D02*
X41867543Y-44710514D01*
X41867543Y-44710514D02*
X41915162Y-44758133D01*
X41915162Y-44758133D02*
X42010400Y-44805752D01*
X41010400Y-44472419D02*
X41105638Y-44424800D01*
X41105638Y-44424800D02*
X41153257Y-44377180D01*
X41153257Y-44377180D02*
X41200876Y-44281942D01*
X41200876Y-44281942D02*
X41200876Y-43996228D01*
X41200876Y-43996228D02*
X41153257Y-43900990D01*
X41153257Y-43900990D02*
X41105638Y-43853371D01*
X41105638Y-43853371D02*
X41010400Y-43805752D01*
X41010400Y-43805752D02*
X40867543Y-43805752D01*
X40867543Y-43805752D02*
X40772305Y-43853371D01*
X40772305Y-43853371D02*
X40724686Y-43900990D01*
X40724686Y-43900990D02*
X40677067Y-43996228D01*
X40677067Y-43996228D02*
X40677067Y-44281942D01*
X40677067Y-44281942D02*
X40724686Y-44377180D01*
X40724686Y-44377180D02*
X40772305Y-44424800D01*
X40772305Y-44424800D02*
X40867543Y-44472419D01*
X40867543Y-44472419D02*
X41010400Y-44472419D01*
X39819924Y-43805752D02*
X39819924Y-44472419D01*
X40248495Y-43805752D02*
X40248495Y-44329561D01*
X40248495Y-44329561D02*
X40200876Y-44424800D01*
X40200876Y-44424800D02*
X40105638Y-44472419D01*
X40105638Y-44472419D02*
X39962781Y-44472419D01*
X39962781Y-44472419D02*
X39867543Y-44424800D01*
X39867543Y-44424800D02*
X39819924Y-44377180D01*
D11*
X75033333Y-60331009D02*
X74890476Y-60378628D01*
X74890476Y-60378628D02*
X74842857Y-60426247D01*
X74842857Y-60426247D02*
X74795238Y-60521485D01*
X74795238Y-60521485D02*
X74795238Y-60664342D01*
X74795238Y-60664342D02*
X74842857Y-60759580D01*
X74842857Y-60759580D02*
X74890476Y-60807200D01*
X74890476Y-60807200D02*
X74985714Y-60854819D01*
X74985714Y-60854819D02*
X75366666Y-60854819D01*
X75366666Y-60854819D02*
X75366666Y-59854819D01*
X75366666Y-59854819D02*
X75033333Y-59854819D01*
X75033333Y-59854819D02*
X74938095Y-59902438D01*
X74938095Y-59902438D02*
X74890476Y-59950057D01*
X74890476Y-59950057D02*
X74842857Y-60045295D01*
X74842857Y-60045295D02*
X74842857Y-60140533D01*
X74842857Y-60140533D02*
X74890476Y-60235771D01*
X74890476Y-60235771D02*
X74938095Y-60283390D01*
X74938095Y-60283390D02*
X75033333Y-60331009D01*
X75033333Y-60331009D02*
X75366666Y-60331009D01*
X74366666Y-59854819D02*
X74366666Y-60664342D01*
X74366666Y-60664342D02*
X74319047Y-60759580D01*
X74319047Y-60759580D02*
X74271428Y-60807200D01*
X74271428Y-60807200D02*
X74176190Y-60854819D01*
X74176190Y-60854819D02*
X73985714Y-60854819D01*
X73985714Y-60854819D02*
X73890476Y-60807200D01*
X73890476Y-60807200D02*
X73842857Y-60759580D01*
X73842857Y-60759580D02*
X73795238Y-60664342D01*
X73795238Y-60664342D02*
X73795238Y-59854819D01*
X73414285Y-59854819D02*
X72747619Y-59854819D01*
X72747619Y-59854819D02*
X73414285Y-60854819D01*
X73414285Y-60854819D02*
X72747619Y-60854819D01*
X72461904Y-59854819D02*
X71795238Y-59854819D01*
X71795238Y-59854819D02*
X72461904Y-60854819D01*
X72461904Y-60854819D02*
X71795238Y-60854819D01*
X71414285Y-60331009D02*
X71080952Y-60331009D01*
X70938095Y-60854819D02*
X71414285Y-60854819D01*
X71414285Y-60854819D02*
X71414285Y-59854819D01*
X71414285Y-59854819D02*
X70938095Y-59854819D01*
X69938095Y-60854819D02*
X70271428Y-60378628D01*
X70509523Y-60854819D02*
X70509523Y-59854819D01*
X70509523Y-59854819D02*
X70128571Y-59854819D01*
X70128571Y-59854819D02*
X70033333Y-59902438D01*
X70033333Y-59902438D02*
X69985714Y-59950057D01*
X69985714Y-59950057D02*
X69938095Y-60045295D01*
X69938095Y-60045295D02*
X69938095Y-60188152D01*
X69938095Y-60188152D02*
X69985714Y-60283390D01*
X69985714Y-60283390D02*
X70033333Y-60331009D01*
X70033333Y-60331009D02*
X70128571Y-60378628D01*
X70128571Y-60378628D02*
X70509523Y-60378628D01*
X68985714Y-60854819D02*
X69557142Y-60854819D01*
X69271428Y-60854819D02*
X69271428Y-59854819D01*
X69271428Y-59854819D02*
X69366666Y-59997676D01*
X69366666Y-59997676D02*
X69461904Y-60092914D01*
X69461904Y-60092914D02*
X69557142Y-60140533D01*
D12*
X83891520Y-94454809D02*
X83377473Y-94454809D01*
X83377473Y-94454809D02*
X83316997Y-94424571D01*
X83316997Y-94424571D02*
X83286759Y-94394333D01*
X83286759Y-94394333D02*
X83256520Y-94333857D01*
X83256520Y-94333857D02*
X83256520Y-94212904D01*
X83256520Y-94212904D02*
X83286759Y-94152428D01*
X83286759Y-94152428D02*
X83316997Y-94122190D01*
X83316997Y-94122190D02*
X83377473Y-94091952D01*
X83377473Y-94091952D02*
X83891520Y-94091952D01*
X83256520Y-93456952D02*
X83256520Y-93819809D01*
X83256520Y-93638381D02*
X83891520Y-93638381D01*
X83891520Y-93638381D02*
X83800806Y-93698857D01*
X83800806Y-93698857D02*
X83740330Y-93759333D01*
X83740330Y-93759333D02*
X83710092Y-93819809D01*
D13*
%TO.C,BUZZER1*%
X78800000Y-64400000D02*
G75*
G02*
X65600000Y-64400000I-6600000J0D01*
G01*
X65600000Y-64400000D02*
G75*
G02*
X78800000Y-64400000I6600000J0D01*
G01*
X73470000Y-64400000D02*
G75*
G02*
X70930000Y-64400000I-1270000J0D01*
G01*
X70930000Y-64400000D02*
G75*
G02*
X73470000Y-64400000I1270000J0D01*
G01*
D14*
X78480000Y-70660000D02*
G75*
G02*
X78420000Y-70660000I-30000J0D01*
G01*
X78420000Y-70660000D02*
G75*
G02*
X78480000Y-70660000I30000J0D01*
G01*
D15*
%TO.C,U1*%
X80255000Y-104110000D02*
X66285000Y-104110000D01*
X82160000Y-102205000D02*
X82160000Y-85060000D01*
X64380000Y-102205000D02*
X64380000Y-85060000D01*
X77765000Y-83155000D02*
X77761272Y-82144728D01*
D10*
X66285000Y-83155000D02*
X80255000Y-83155000D01*
X66285000Y-83155000D02*
X80255000Y-83155000D01*
D15*
X66285000Y-83155000D02*
X80255000Y-83155000D01*
X68766000Y-82145000D02*
X68766000Y-83155000D01*
X77261272Y-81645000D02*
X69266000Y-81645000D01*
X82160000Y-102205000D02*
G75*
G02*
X80255000Y-104110000I-1905001J1D01*
G01*
X66285000Y-104110000D02*
G75*
G02*
X64380000Y-102205000I1J1905001D01*
G01*
X80255000Y-83155000D02*
G75*
G02*
X82160000Y-85060000I0J-1905000D01*
G01*
X64380000Y-85060000D02*
G75*
G02*
X66285000Y-83155000I1905000J0D01*
G01*
X77261272Y-81645000D02*
G75*
G02*
X77761300Y-82144728I28J-500000D01*
G01*
X68766000Y-82145000D02*
G75*
G02*
X69266000Y-81645000I500000J0D01*
G01*
D16*
X81379000Y-84326000D02*
G75*
G02*
X80875000Y-84326000I-252000J0D01*
G01*
X80875000Y-84326000D02*
G75*
G02*
X81379000Y-84326000I252000J0D01*
G01*
X82522000Y-83446000D02*
G75*
G02*
X82018000Y-83446000I-252000J0D01*
G01*
X82018000Y-83446000D02*
G75*
G02*
X82522000Y-83446000I252000J0D01*
G01*
%TD*%
M02*
